<svg width="18" height="18" viewBox="0 0 18 18" fill="none" xmlns="http://www.w3.org/2000/svg">
<path d="M14.6881 17.9327C14.1737 17.9327 13.7003 17.7618 13.3585 17.4093L8.91303 12.8312L4.33308 17.2766C3.92036 17.6779 3.33114 17.8405 2.67286 17.734C2.044 17.6323 1.42303 17.2935 0.924213 16.7805C0.425215 16.2664 0.104686 15.6352 0.0214598 15.003C-0.0657125 14.3416 0.114551 13.7567 0.528351 13.3557L5.10633 8.90951L0.660006 4.32938C-0.14571 3.49891 0.0781397 1.96909 1.15882 0.919254C2.24041 -0.129683 3.77543 -0.307257 4.58061 0.522674L9.02783 5.10155L13.6062 0.656302C14.4379 -0.149772 15.9679 0.0737185 17.017 1.15404C18.0663 2.23545 18.2442 3.77172 17.4136 4.57852L12.8354 9.02394L17.2798 13.6021C18.0857 14.4328 17.8629 15.9629 16.7829 17.0129C16.1598 17.6176 15.3862 17.9327 14.6881 17.9327ZM8.91841 12.2004C8.98657 12.2004 9.05473 12.2269 9.10585 12.2796L13.7333 17.0452C14.3392 17.6694 15.5439 17.487 16.4192 16.6384C17.2925 15.7893 17.5104 14.5906 16.9051 13.9666L12.2787 9.20098C12.1782 9.09748 12.1806 8.93211 12.2841 8.83148L17.0497 4.20418C17.6735 3.59792 17.4909 2.39311 16.6421 1.51852C15.7934 0.644643 14.595 0.426354 13.9699 1.03172L9.20432 5.65884C9.10101 5.75947 8.93545 5.75696 8.83483 5.65346L4.20573 0.886968C3.60108 0.263489 2.39753 0.446263 1.52258 1.29449C0.648706 2.14343 0.429699 3.34196 1.0347 3.9658L5.66291 8.73319C5.76335 8.83669 5.76102 9.00206 5.65752 9.10269L0.891927 13.7309C0.599559 14.0143 0.474361 14.4417 0.539292 14.935C0.60781 15.4566 0.877578 15.9827 1.29855 16.4165C1.71953 16.8495 2.23718 17.1342 2.75591 17.2183C3.24683 17.2978 3.67714 17.1853 3.96843 16.9019L8.736 12.2744C8.7873 12.2249 8.85277 12.2004 8.91841 12.2004Z" fill="#231F20"/>
</svg>
